<svg xmlns="http://www.w3.org/2000/svg" viewBox="0 0 160 160" role="img" aria-labelledby="title desc">
  <title id="title">Max avatar placeholder</title>
  <desc id="desc">Original friendly blue cartoon avatar for Fairplay persona Max.</desc>
  <rect width="160" height="160" rx="36" fill="#FFFDF8"/>
  <circle cx="80" cy="88" r="50" fill="#CDD8FF"/>
  <path d="M45 73c10-25 33-38 60-31 20 5 29 22 31 39-28-11-55-9-91-8z" fill="#4568D9"/>
  <path d="M57 45c13-15 43-17 59 1-18 7-36 9-59-1z" fill="#6E83E6"/>
  <path d="M53 94c6-6 15-6 21 0" fill="none" stroke="#20212A" stroke-width="5" stroke-linecap="round"/>
  <path d="M91 94c6-6 15-6 21 0" fill="none" stroke="#20212A" stroke-width="5" stroke-linecap="round"/>
  <circle cx="64" cy="96" r="3.5" fill="#20212A"/>
  <circle cx="101" cy="96" r="3.5" fill="#20212A"/>
  <path d="M67 118c8 6 19 6 27 0" fill="none" stroke="#20212A" stroke-width="5" stroke-linecap="round"/>
  <path d="M41 126c18 17 61 24 87 0-7 18-24 29-46 29s-37-11-41-29z" fill="#D9714A"/>
  <path d="M118 36l13 5-12 7" fill="none" stroke="#F2B84B" stroke-width="6" stroke-linecap="round" stroke-linejoin="round"/>
</svg>
