<svg xmlns="http://www.w3.org/2000/svg" viewBox="0 0 160 160" role="img" aria-labelledby="title desc">
  <title id="title">Alex avatar placeholder</title>
  <desc id="desc">Original friendly teal cartoon avatar for Fairplay persona Alex.</desc>
  <rect width="160" height="160" rx="36" fill="#FFFDF8"/>
  <circle cx="80" cy="86" r="50" fill="#BEE8DC"/>
  <path d="M45 82c6-27 24-42 52-40 19 1 34 15 40 35-20-8-44-9-92 5z" fill="#2C8F7A"/>
  <path d="M72 37c14-17 31-14 38-3-16 1-25 8-32 20z" fill="#7DCC92"/>
  <circle cx="62" cy="86" r="10" fill="#FFFDF8" stroke="#20212A" stroke-width="5"/>
  <circle cx="98" cy="86" r="10" fill="#FFFDF8" stroke="#20212A" stroke-width="5"/>
  <path d="M72 86h16" stroke="#20212A" stroke-width="5" stroke-linecap="round"/>
  <circle cx="63" cy="87" r="3" fill="#20212A"/>
  <circle cx="99" cy="87" r="3" fill="#20212A"/>
  <path d="M66 114c9 8 20 8 29 0" fill="none" stroke="#20212A" stroke-width="5" stroke-linecap="round"/>
  <path d="M42 124c19 18 57 26 86 0-5 19-23 31-44 31-22 0-38-12-42-31z" fill="#2C8F7A"/>
  <circle cx="123" cy="39" r="7" fill="#F2B84B"/>
</svg>
