<svg xmlns="http://www.w3.org/2000/svg" width="360" height="520" viewBox="0 0 360 520" role="img" aria-labelledby="title desc">
  <title id="title">Little Alex original proportion template</title>
  <desc id="desc">Original Fairplay paper-doll proportion guide for coherent Little Alex sprite generation.</desc>
  <rect width="360" height="520" fill="#fffdf8"/>
  <line x1="180" y1="36" x2="180" y2="472" stroke="#d9dee8" stroke-width="2" stroke-dasharray="8 8"/>
  <g fill="none" stroke="#20212a" stroke-linecap="round" stroke-linejoin="round">
    <ellipse cx="180" cy="96" rx="58" ry="62" stroke-width="4"/>
    <path d="M160 160h40" stroke-width="4"/>
    <path d="M128 176c18-12 86-12 104 0l22 132c-28 18-120 18-148 0z" stroke-width="4"/>
    <path d="M128 188c-40 12-56 54-50 116 3 34 20 68 42 84" stroke-width="4"/>
    <path d="M232 188c40 12 56 54 50 116-3 34-20 68-42 84" stroke-width="4"/>
    <path d="M121 388c-18 0-28 10-28 22 0 11 13 20 32 20" stroke-width="4"/>
    <path d="M239 388c18 0 28 10 28 22 0 11-13 20-32 20" stroke-width="4"/>
    <path d="M145 326l-16 116c-3 23 8 38 28 38h20l3-154" stroke-width="4"/>
    <path d="M215 326l16 116c3 23-8 38-28 38h-20l-3-154" stroke-width="4"/>
  </g>
  <g fill="#5a5e6f" font-family="Arial, sans-serif" font-size="13">
    <text x="18" y="28">Original in-repo template, not copied from an external mannequin.</text>
    <text x="18" y="502">Equal limb lengths, shared centerline, compact 3.2-3.5 head-height character.</text>
  </g>
</svg>
